# xmcd
# Copyright (C) 1995-1998 Ti Kan
#
# Track frame offsets:
#       150
#       15210
#       29864
#
# Disc length: 594 seconds
#
# Revision: 0
# Processed by: cddbd v1.5.2PL0 Copyright (c) Steve Scherf et al.
# Submitted via: CD-Transfer v1.0
#
DISCID=1a025003
DTITLE=Weekend - 
DYEAR=08
DGENRE=
TTITLE0=Nur Wer Liebt (08)
TTITLE1=So Etwas Von Wahnsinn (8)
TTITLE2=Wenn Ein Schmetterling Nicht Fliegt (8)
EXTD=
EXTT0=
EXTT1=
EXTT2=
PLAYORDER=
